/* XPM */
static char * nekobee_xpm[] = {
"49 49 765 2",
"  	c None",
". 	c #8F5F1E",
"+ 	c #B77A25",
"@ 	c #C88428",
"# 	c #CB8629",
"$ 	c #D48C29",
"% 	c #D68D29",
"& 	c #D38B29",
"* 	c #986954",
"= 	c #2929A1",
"- 	c #28289F",
"; 	c #28289E",
"> 	c #26269D",
", 	c #252594",
"' 	c #202082",
") 	c #151554",
"! 	c #6C4917",
"~ 	c #B67925",
"{ 	c #CF8929",
"] 	c #D68E2A",
"^ 	c #D48C2A",
"/ 	c #D58C2A",
"( 	c #DB912A",
"_ 	c #D68E29",
": 	c #DA9029",
"< 	c #DB9129",
"[ 	c #9D6E57",
"} 	c #2929A7",
"| 	c #2828A7",
"1 	c #2828AA",
"2 	c #2828AC",
"3 	c #2727A7",
"4 	c #2727A1",
"5 	c #252597",
"6 	c #1C1C71",
"7 	c #A36D24",
"8 	c #D58F2B",
"9 	c #DA902A",
"0 	c #DC932A",
"a 	c #DC922A",
"b 	c #DE932A",
"c 	c #DC912A",
"d 	c #D9902A",
"e 	c #D98F29",
"f 	c #DE9229",
"g 	c #DF9329",
"h 	c #986B5C",
"i 	c #2929A8",
"j 	c #2828A9",
"k 	c #2828A6",
"l 	c #2727A5",
"m 	c #2626A8",
"n 	c #2626A2",
"o 	c #252599",
"p 	c #1B1B6F",
"q 	c #81571C",
"r 	c #CB872A",
"s 	c #CF8B2B",
"t 	c #DA922B",
"u 	c #D8902A",
"v 	c #DB922A",
"w 	c #DD922A",
"x 	c #DF932A",
"y 	c #DE922A",
"z 	c #DC902A",
"A 	c #DB9229",
"B 	c #946958",
"C 	c #2828A4",
"D 	c #2828A8",
"E 	c #2828AB",
"F 	c #2727A6",
"G 	c #2727A9",
"H 	c #2626A7",
"I 	c #2626A5",
"J 	c #2626A3",
"K 	c #25259D",
"L 	c #22228E",
"M 	c #A76F24",
"N 	c #D68E2B",
"O 	c #D9912B",
"P 	c #D8912B",
"Q 	c #DC922B",
"R 	c #DA912A",
"S 	c #D48B28",
"T 	c #CD8727",
"U 	c #926552",
"V 	c #25259B",
"W 	c #2727A3",
"X 	c #24249D",
"Y 	c #2525A4",
"Z 	c #2525A0",
"` 	c #2626A9",
" .	c #2525A1",
"..	c #242497",
"+.	c #191968",
"@.	c #BD7D26",
"#.	c #D48D2B",
"$.	c #DA902B",
"%.	c #DE922B",
"&.	c #E0942B",
"*.	c #E3952B",
"=.	c #E0942A",
"-.	c #D78F2A",
";.	c #D08929",
">.	c #C28127",
",.	c #A66F22",
"'.	c #865B20",
").	c #704D1E",
"!.	c #7F551C",
"~.	c #694843",
"{.	c #1D1D74",
"].	c #1E1E59",
"^.	c #1C1C6B",
"/.	c #1B1B77",
"(.	c #1B1B85",
"_.	c #1F1F8C",
":.	c #202094",
"<.	c #21219A",
"[.	c #2323A1",
"}.	c #2525A5",
"|.	c #2525A2",
"1.	c #24249B",
"2.	c #191965",
"3.	c #BF7F28",
"4.	c #D78F2B",
"5.	c #DB912B",
"6.	c #E1962B",
"7.	c #E1952B",
"8.	c #D78E29",
"9.	c #B57826",
"0.	c #6D4C20",
"a.	c #40321E",
"b.	c #28231D",
"c.	c #21201E",
"d.	c #1E1E1E",
"e.	c #1E1C19",
"f.	c #251F22",
"g.	c #181824",
"h.	c #1D1D1D",
"i.	c #1C1C1F",
"j.	c #1C1C27",
"k.	c #191937",
"l.	c #181857",
"m.	c #171779",
"n.	c #1A1A86",
"o.	c #1D1D8D",
"p.	c #1F1F96",
"q.	c #222299",
"r.	c #2424A0",
"s.	c #2525A7",
"t.	c #2424A4",
"u.	c #B47825",
"v.	c #D98F2B",
"w.	c #DD932B",
"x.	c #DC942B",
"y.	c #DB922B",
"z.	c #DC902B",
"A.	c #B87B27",
"B.	c #694A1F",
"C.	c #342A1E",
"D.	c #232323",
"E.	c #353535",
"F.	c #4C4C4C",
"G.	c #4D4D4D",
"H.	c #614816",
"I.	c #8C6A15",
"J.	c #665119",
"K.	c #494949",
"L.	c #323131",
"M.	c #1F1F1F",
"N.	c #1D1D1F",
"O.	c #191931",
"P.	c #131351",
"Q.	c #11116C",
"R.	c #17177F",
"S.	c #1C1C8A",
"T.	c #1F1F97",
"U.	c #22229F",
"V.	c #2323A3",
"W.	c #2424A8",
"X.	c #23239A",
"Y.	c #171762",
"Z.	c #A06A21",
"`.	c #DA912B",
" +	c #DD942B",
".+	c #DC952B",
"++	c #D78E2A",
"@+	c #976724",
"#+	c #3D301E",
"$+	c #272727",
"%+	c #545454",
"&+	c #878787",
"*+	c #9B9B9B",
"=+	c #9A9A9A",
"-+	c #7D7D7C",
";+	c #A97712",
">+	c #FAB608",
",+	c #BA8914",
"'+	c #767574",
")+	c #6C6C6C",
"!+	c #575757",
"~+	c #3B3B3B",
"{+	c #252525",
"]+	c #1C1C1E",
"^+	c #15152D",
"/+	c #0F0F55",
"(+	c #121274",
"_+	c #171784",
":+	c #1D1D98",
"<+	c #21219C",
"[+	c #2323A4",
"}+	c #23239C",
"|+	c #232398",
"1+	c #111149",
"2+	c #6B4717",
"3+	c #D7902B",
"4+	c #DC932B",
"5+	c #DA922A",
"6+	c #D28B2A",
"7+	c #8A6024",
"8+	c #2D271E",
"9+	c #202020",
"0+	c #474747",
"a+	c #939393",
"b+	c #B3B3B3",
"c+	c #A7A7A7",
"d+	c #9C9C9C",
"e+	c #959595",
"f+	c #7F7F7F",
"g+	c #AA7915",
"h+	c #FAB308",
"i+	c #B68212",
"j+	c #6B6A68",
"k+	c #707070",
"l+	c #6A6A6A",
"m+	c #616161",
"n+	c #303030",
"o+	c #161627",
"p+	c #0D0D52",
"q+	c #0D0D6A",
"r+	c #15157E",
"s+	c #1B1B90",
"t+	c #20209B",
"u+	c #22229C",
"v+	c #2323A2",
"w+	c #20208F",
"x+	c #C48128",
"y+	c #D9902B",
"z+	c #DE942B",
"A+	c #E2952B",
"B+	c #D9912A",
"C+	c #D18A2A",
"D+	c #815922",
"E+	c #29241E",
"F+	c #222222",
"G+	c #686868",
"H+	c #B6B6B6",
"I+	c #B5B5B5",
"J+	c #A5A5A5",
"K+	c #9E9E9E",
"L+	c #989898",
"M+	c #929292",
"N+	c #787878",
"O+	c #A97711",
"P+	c #FBB408",
"Q+	c #BC8714",
"R+	c #6C6B6A",
"S+	c #6D6D6D",
"T+	c #626262",
"U+	c #5C5C5C",
"V+	c #505050",
"W+	c #363636",
"X+	c #171724",
"Y+	c #0B0B50",
"Z+	c #0C0C67",
"`+	c #131379",
" @	c #19198D",
".@	c #1F1F9B",
"+@	c #22229E",
"@@	c #191970",
"#@	c #905F1D",
"$@	c #DE942A",
"%@	c #DF942A",
"&@	c #D88F2A",
"*@	c #946424",
"=@	c #29241D",
"-@	c #747474",
";@	c #C2C2C2",
">@	c #9F9F9F",
",@	c #949494",
"'@	c #8E8E8E",
")@	c #70706F",
"!@	c #A4730F",
"~@	c #FCB408",
"{@	c #B38316",
"]@	c #6B6B6B",
"^@	c #656565",
"/@	c #606060",
"(@	c #5B5B5B",
"_@	c #555555",
":@	c #151529",
"<@	c #09094F",
"[@	c #121277",
"}@	c #19198A",
"|@	c #1F1F9A",
"1@	c #22229D",
"2@	c #212191",
"3@	c #C98429",
"4@	c #E0932A",
"5@	c #D98F2A",
"6@	c #B47726",
"7@	c #3A2E1E",
"8@	c #A6A6A6",
"9@	c #A0A0A0",
"0@	c #909090",
"a@	c #8A8A8A",
"b@	c #646463",
"c@	c #A06F0D",
"d@	c #F9AD08",
"e@	c #B18115",
"f@	c #6F6F6F",
"g@	c #636363",
"h@	c #5E5E5E",
"i@	c #595959",
"j@	c #4F4F4F",
"k@	c #464646",
"l@	c #11112E",
"m@	c #060653",
"n@	c #0C0C68",
"o@	c #1A1A8B",
"p@	c #1F1F9C",
"q@	c #21219F",
"r@	c #19196E",
"s@	c #7B511A",
"t@	c #D7902A",
"u@	c #E1972A",
"v@	c #CD8829",
"w@	c #64471F",
"x@	c #434343",
"y@	c #B4B4B4",
"z@	c #969696",
"A@	c #919191",
"B@	c #8B8B8B",
"C@	c #868686",
"D@	c #5B5A59",
"E@	c #AA760C",
"F@	c #FCB008",
"G@	c #B18114",
"H@	c #6E6E6E",
"I@	c #525252",
"J@	c #4E4E4E",
"K@	c #3E3E3E",
"L@	c #282828",
"M@	c #1B1B1E",
"N@	c #09093D",
"O@	c #060658",
"P@	c #0E0E6C",
"Q@	c #151582",
"R@	c #20209D",
"S@	c #202095",
"T@	c #B57724",
"U@	c #D58D2A",
"V@	c #A26C24",
"W@	c #29231C",
"X@	c #8C8C8C",
"Y@	c #B9B9B9",
"Z@	c #808080",
"`@	c #504F4E",
" #	c #AF7B0A",
".#	c #FDB508",
"+#	c #B17E15",
"@#	c #484848",
"##	c #424242",
"$#	c #343434",
"%#	c #141429",
"&#	c #020245",
"*#	c #08085B",
"=#	c #0F0F79",
"-#	c #171789",
";#	c #1D1D94",
">#	c #13135B",
",#	c #E2942A",
"'#	c #E1952A",
")#	c #CB8728",
"!#	c #62461F",
"~#	c #4B4B4B",
"{#	c #B2B2B2",
"]#	c #9D9D9D",
"^#	c #999999",
"/#	c #828282",
"(#	c #7A7A7A",
"_#	c #484846",
":#	c #AD770A",
"<#	c #FCBB08",
"[#	c #B08116",
"}#	c #717070",
"|#	c #565656",
"1#	c #4A4A4A",
"2#	c #3A3A3A",
"3#	c #292929",
"4#	c #1B1B1D",
"5#	c #070737",
"6#	c #040456",
"7#	c #0B0B66",
"8#	c #12127C",
"9#	c #1A1A8D",
"0#	c #20209E",
"a#	c #1D1D85",
"b#	c #80541A",
"c#	c #DD912A",
"d#	c #DA8F2A",
"e#	c #D88E2A",
"f#	c #DB9029",
"g#	c #C08026",
"h#	c #332A1D",
"i#	c #212121",
"j#	c #ABABAB",
"k#	c #8F8F8F",
"l#	c #7D7D7D",
"m#	c #454340",
"n#	c #B67A08",
"o#	c #FAAF08",
"p#	c #B28116",
"q#	c #585858",
"r#	c #444444",
"s#	c #414141",
"t#	c #2F2F2F",
"u#	c #0E0E29",
"v#	c #010149",
"w#	c #07075C",
"x#	c #0E0E72",
"y#	c #161688",
"z#	c #1C1C92",
"A#	c #A56D21",
"B#	c #D78D29",
"C#	c #DD9229",
"D#	c #DF9229",
"E#	c #D58B29",
"F#	c #A16A21",
"G#	c #22201D",
"H#	c #8D8D8D",
"I#	c #898989",
"J#	c #858585",
"K#	c #818181",
"L#	c #423F39",
"M#	c #C38508",
"N#	c #FCB308",
"O#	c #B48417",
"P#	c #515151",
"Q#	c #3F3F3F",
"R#	c #333333",
"S#	c #151523",
"T#	c #010146",
"U#	c #040458",
"V#	c #0B0B6A",
"W#	c #141481",
"X#	c #1A1A8C",
"Y#	c #1F1F94",
"Z#	c #0F0F40",
"`#	c #B07523",
" $	c #DE9329",
".$	c #DA8F29",
"+$	c #D68D27",
"@$	c #744F1D",
"#$	c #404040",
"$$	c #838383",
"%$	c #7C7C7C",
"&$	c #737373",
"*$	c #3E3B36",
"=$	c #C08207",
"-$	c #FAB408",
";$	c #AB7E18",
">$	c #3D3D3D",
",$	c #262626",
"'$	c #1A1A1F",
")$	c #04043F",
"!$	c #01014E",
"~$	c #080864",
"{$	c #111179",
"]$	c #171787",
"^$	c #1E1E95",
"/$	c #131358",
"($	c #C98527",
"_$	c #DC9129",
":$	c #D99129",
"<$	c #DC9029",
"[$	c #CE8826",
"}$	c #563D1C",
"|$	c #767676",
"1$	c #727272",
"2$	c #3E3A31",
"3$	c #CA8906",
"4$	c #F8B508",
"5$	c #A17919",
"6$	c #696969",
"7$	c #454545",
"8$	c #3C3C3C",
"9$	c #393939",
"0$	c #1C1C1D",
"a$	c #070734",
"b$	c #00004A",
"c$	c #050559",
"d$	c #0D0D70",
"e$	c #151585",
"f$	c #1C1C8D",
"g$	c #16166A",
"h$	c #C98427",
"i$	c #D78F29",
"j$	c #D98E28",
"k$	c #C78124",
"l$	c #4A361B",
"m$	c #888888",
"n$	c #777777",
"o$	c #717171",
"p$	c #3B372E",
"q$	c #C88806",
"r$	c #F8B208",
"s$	c #98721B",
"t$	c #666666",
"u$	c #373737",
"v$	c #090936",
"w$	c #000048",
"x$	c #030355",
"y$	c #141485",
"z$	c #191973",
"A$	c #CC8727",
"B$	c #D68E28",
"C$	c #DA9128",
"D$	c #D78E28",
"E$	c #D58D28",
"F$	c #46341C",
"G$	c #757575",
"H$	c #6C6B6B",
"I$	c #3B372F",
"J$	c #C08107",
"K$	c #F3A907",
"L$	c #8D6D26",
"M$	c #383838",
"N$	c #323232",
"O$	c #020254",
"P$	c #0A0A67",
"Q$	c #131381",
"R$	c #19198F",
"S$	c #191977",
"T$	c #C68227",
"U$	c #DC9128",
"V$	c #D28D28",
"W$	c #DE9228",
"X$	c #B97A22",
"Y$	c #41301A",
"Z$	c #5A5A5A",
"`$	c #715628",
" %	c #A37826",
".%	c #897E6A",
"+%	c #1C1C1C",
"@%	c #090931",
"#%	c #000047",
"$%	c #090967",
"%%	c #12127E",
"&%	c #19198B",
"*%	c #181876",
"=%	c #CC8626",
"-%	c #D48C28",
";%	c #D68D28",
">%	c #DC9228",
",%	c #D88E27",
"'%	c #C47F22",
")%	c #523A1A",
"!%	c #676767",
"~%	c #646464",
"{%	c #686766",
"]%	c #080837",
"^%	c #00004B",
"/%	c #020253",
"(%	c #080860",
"_%	c #11117B",
":%	c #18188D",
"<%	c #171771",
"[%	c #CB8525",
"}%	c #D28B28",
"|%	c #D78D28",
"1%	c #D58B27",
"2%	c #C68121",
"3%	c #674518",
"4%	c #2D2D2D",
"5%	c #5F5F5F",
"6%	c #3F3E3E",
"7%	c #313131",
"8%	c #2C2C2C",
"9%	c #19191D",
"0%	c #03033C",
"a%	c #01014B",
"b%	c #080862",
"c%	c #11117A",
"d%	c #18188A",
"e%	c #141463",
"f%	c #AE7221",
"g%	c #D48C27",
"h%	c #D98F27",
"i%	c #D98E27",
"j%	c #C47F21",
"k%	c #805418",
"l%	c #201F1D",
"m%	c #242424",
"n%	c #535353",
"o%	c #2A2A2A",
"p%	c #010141",
"q%	c #00004D",
"r%	c #080868",
"s%	c #11117D",
"t%	c #10104F",
"u%	c #895A1A",
"v%	c #D28A27",
"w%	c #D78D27",
"x%	c #D68E27",
"y%	c #D38C27",
"z%	c #C68323",
"A%	c #9A6319",
"B%	c #2C241B",
"C%	c #0F0F30",
"D%	c #000050",
"E%	c #03035C",
"F%	c #0A0A68",
"G%	c #121280",
"H%	c #D48B27",
"I%	c #DE9027",
"J%	c #DF9227",
"K%	c #E19426",
"L%	c #D18A23",
"M%	c #A96C1A",
"N%	c #423018",
"O%	c #2E2E2E",
"P%	c #070739",
"Q%	c #000049",
"R%	c #030358",
"S%	c #151581",
"T%	c #18187E",
"U%	c #D98E26",
"V%	c #DE9026",
"W%	c #DE9126",
"X%	c #CE8724",
"Y%	c #B3721B",
"Z%	c #784D15",
"`%	c #22201C",
" &	c #2B2B2B",
".&	c #121227",
"+&	c #000043",
"@&	c #0D0D74",
"#&	c #161687",
"$&	c #14146A",
"%&	c #A86E1F",
"&&	c #D78D26",
"*&	c #DA8F26",
"=&	c #D58C26",
"-&	c #CF8725",
";&	c #BF7A1D",
">&	c #986015",
",&	c #3C2C16",
"'&	c #000045",
")&	c #080863",
"!&	c #0F0F75",
"~&	c #161682",
"{&	c #0E0E41",
"]&	c #614013",
"^&	c #D18926",
"/&	c #D58B26",
"(&	c #DA9126",
"_&	c #D58B25",
":&	c #C37D20",
"<&	c #AA6B18",
"[&	c #764B11",
"}&	c #2C241A",
"|&	c #101026",
"1&	c #000046",
"2&	c #030354",
"3&	c #0A0A64",
"4&	c #13137A",
"5&	c #17177D",
"6&	c #AC7120",
"7&	c #CF8A25",
"8&	c #D28B25",
"9&	c #D48B25",
"0&	c #CF8823",
"a&	c #B3721A",
"b&	c #925C13",
"c&	c #50340F",
"d&	c #201D1A",
"e&	c #14141F",
"f&	c #030339",
"g&	c #000044",
"h&	c #02024F",
"i&	c #070761",
"j&	c #0E0E70",
"k&	c #16167F",
"l&	c #111159",
"m&	c #654213",
"n&	c #CB8425",
"o&	c #D58C25",
"p&	c #DA8E25",
"q&	c #D38B24",
"r&	c #BB781F",
"s&	c #A76916",
"t&	c #7C4D0E",
"u&	c #261C0F",
"v&	c #1B1B1B",
"w&	c #171717",
"x&	c #06061C",
"y&	c #00003D",
"z&	c #00004C",
"A&	c #040455",
"B&	c #0A0A63",
"C&	c #121279",
"D&	c #16167B",
"E&	c #A46C1F",
"F&	c #D08825",
"G&	c #D78B25",
"H&	c #D58A25",
"I&	c #C68123",
"J&	c #A5691A",
"K&	c #3F2708",
"L&	c #0C0C0C",
"M&	c #1A1A1A",
"N&	c #161616",
"O&	c #050505",
"P&	c #000003",
"Q&	c #000021",
"R&	c #02024E",
"S&	c #16167E",
"T&	c #101052",
"U&	c #4D330F",
"V&	c #C68124",
"W&	c #CF8724",
"X&	c #CD8524",
"Y&	c #C58123",
"Z&	c #5A3A0E",
"`&	c #080808",
" *	c #111111",
".*	c #040404",
"+*	c #000000",
"@*	c #000002",
"#*	c #01012C",
"$*	c #070756",
"%*	c #0D0D6C",
"&*	c #141478",
"**	c #141467",
"=*	c #85571A",
"-*	c #BF7D24",
";*	c #B97923",
">*	c #0E0E0E",
",*	c #191919",
"'*	c #0A0A0A",
")*	c #00000B",
"!*	c #090946",
"~*	c #121272",
"{*	c #161673",
"]*	c #6F4917",
"^*	c #664315",
"/*	c #0D0D0D",
"(*	c #121212",
"_*	c #0B0B0B",
":*	c #0E0E48",
"<*	c #060606",
"[*	c #090909",
"}*	c #0F0F0F",
"|*	c #070707",
"                                                                                                  ",
"                                                                                                  ",
"                                                                                                  ",
"                                                                                                  ",
"                                  . + @ # $ % & * = - ; > , ' )                                   ",
"                            ! ~ { ] ^ / ( _ : < [ } | 1 2 3 4 4 5 6                               ",
"                          7 8 9 0 a b c d e f g h i j 1 k l l l m n o p                           ",
"                      q r s t u v w x y z A e : B i C D E F 3 G H I J K L                         ",
"                    M N O P Q 9 v c R 9 & $ S T U V > W K X Y Z n ` H  . ...+.                    ",
"                  @.#.$.%.&.*.=.d -.;.>.,.'.).!.~.{.].^./.(._.:.<.[.}.Y |.Z 1.2.                  ",
"                3.4.5.6.%.7.%.c 8.9.0.a.b.c.d.e.f.g.h.i.j.k.l.m.n.o.p.q.r.s.t.1.p                 ",
"              u.v.w.x.y.z.%.v A.B.C.d.D.E.F.G.H.I.J.K.L.D.M.N.O.P.Q.R.S.T.U.V.W.X.Y.              ",
"            Z.`.5. +.+N v.++@+#+d.$+%+&+*+=+-+;+>+,+'+)+!+~+{+d.]+^+/+(+_+:+<+[+}+|+1+            ",
"          2+3+Q 4+4+w.5+6+7+8+9+0+a+b+c+d+e+f+g+h+i+j+k+l+m+G.n+9+h.o+p+q+r+s+t+u+v+w+            ",
"          x+y+y+z+A+B+C+D+E+F+G+H+I+J+K+L+M+N+O+P+Q+R+S+G+T+U+V+W+F+d.X+Y+Z+`+ @.@+@u+@@          ",
"        #@a $@5+%@&@^ *@=@F+-@;@b+J+>@=+,@'@)@!@~@{@)+]@^@/@(@_@F.E.F+d.:@<@Z+[@}@|@1@2@          ",
"        3@0 R 4@%@5@6@7@M.^@;@b+8@9@*+e+0@a@b@c@d@e@f@G+g@h@i@%+j@k@n+9+d.l@m@n@(+o@p@q@r@        ",
"      s@t@u@a v u v@w@d.x@y@I+8@9@*+z@A@B@C@D@E@F@G@H@^@/@(@!+I@J@K.K@L@M.M@N@O@P@Q@s+R@S@        ",
"      T@R ( 9 $@U@V@W@{+X@Y@8@K+=+z@A@X@&+Z@`@ #.#+#k+g@h@i@%+V+F.@###$#F+d.%#&#*#=#-#;#q@>#      ",
"      & ] w ,#'#)#!#d.~#{#c+]#^#e+0@X@&+/#(#_#:#<#[#}#m+(@|#I@J@1#k@##2#3#M.4#5#6#7#8#9#0#a#      ",
"    b#c#a d#e#f#g#h#i#(#j#d+z@a+k#B@C@/#l#-@m#n#o#p#k+h@q#%+V+F.@#r#s#~+t#i#h.u#v#w#x#y#z#:.      ",
"    A#B#C#D#C#E#F#G#t#,@]#,@0@H#I#J#K#l#N+H@L#M#N#O#H@U+_@P#G.K.k@##Q#~+R#D.M.S#T#U#V#W#X#Y#Z#    ",
"    `#%  $.$8.+$@$d.#$L+a+H#a@&+$$f+%$N+&$G+*$=$-$;$)+i@I@J@~#0+r##$>$2#$#,$M.'$)$!$~${$]$^$/$    ",
"    ($_$:$<$: [$}$d.G.M+B@C@$$Z@l#(#|$1$H@T+2$3$4$5$6$!+j@F.@#7$##Q#8$9$$#L@M.0$a$b$c$d$e$f$g$    ",
"    h$i$ $<$j$k$l$M.P#m$$$Z@l#(#n$-@o$S+6$U+p$q$r$s$t$%+F.K.k@##Q#>$2#u$R#3#9+h.v$w$x$V#y$s+z$    ",
"    A$B$C$D$E$k$F$M.j@Z@%$(#n$G$1$f@H$G+^@i@I$J$K$L$l+P#K.k@x@#$>$~+M$W+N$L@9+h.v$b$O$P$Q$R$S$    ",
"    T$U$V$W$E$X$Y$M.k@n$|$&$o$f@)+6$t$g@/@Z$K.`$ %.%)+F.k@r#s#K@~+9$u$$#n+$+M.+%@%#%O$$%%%&%*%    ",
"    =%-%;%>%,%'%)%M.2#S+k+S+]@6$!%~%m+h@(@i@i@i@{%T+V+0+r#s#K@8$9$u$E.R#t#{+M.+%]%^%/%(%_%:%<%    ",
"    [%}%|%j$1%2%3%d.4%m+6$G+t$~%m+5%U+Z$!+%+I@V+j@~#0+r#s#6%8$2#M$E.R#7%8%D.M.9%0%w$a%b%c%d%e%    ",
"    f%g%h%i%h%j%k%l%m%j@T+T+/@h@U+Z$q#_@n%V+G.~#@#k@x@s#K@8$2#M$W+$#N$t#o%i#d.S#p%q%O$r%s%&%t%    ",
"    u%v%w%x%y%z%A%B%M.9$i@U+(@i@!+_@n%P#j@F.1#0+7$x@#$K@8$2#M$W+$#N$n+4%,$9+d.C%w$D%E%F%G% @      ",
"      H%I%J%K%L%M%N%d.$+K._@|#%+n%P#j@G.~#@#k@r####$K@8$2#M$W+$#N$7%O%o%F+M.4#P%Q%q%R%V#S%T%      ",
"      [%U%V%W%X%Y%Z%`%9+N$~#V+V+J@F.~#K.0+7$x@s#Q#>$~+9$u$W+$#N$7%t# &{+9+d..&+&w$^%c$@&#&$&      ",
"      %&&&*&=&-&;&>&,&d.D.M$@#1#1#@#0+7$x@###$K@8$2#9$u$E.$#N$n+t#8%$+i#M.4#a$'&Q%O$)&!&~&{&      ",
"      ]&^&/&(&_&:&<&[&}&d.{+u$x@7$r#x@###$K@>$~+9$M$W+E.R#N$n+t#8%L@F+M.h.|&+&b$1&2&3&4&5&        ",
"        6&7&8&9&0&a&b&c&d&M.{+R#>$Q#Q#K@>$~+2#M$u$W+$#R#7%n+O% &$+F+M.d.e&f&g&Q%h&i&j&k&l&        ",
"        m&n&o&p&q&r&s&t&u&v&M.D.8%W+9$2#9$M$u$W+E.R#N$7%t#4%o%,$i#M.d.w&x&y&#%z&A&B&C&D&          ",
"          E&F&G&H&I&J&K&  L&M&d.9+{+8%7%R#$#R#N$7%n+O%4%o%$+D.9+M.h.N&O&P&Q&1&R&w#P@S&T&          ",
"          U&V&W&X&Y&Z&      `&N&h.M.9+D.,$3#o%o%o%3#$+m%F+9+M.d.+% *.*+*+*@*#*$*%*&***            ",
"            =*-*;*m&            >*,*d.d.M.9+9+9+9+9+9+M.M.d.h.N&'*          )*!*~*{*              ",
"              ]*^*                  /*N&v&h.d.d.d.d.h.v&,*(*_*                  :*                ",
"                                        <*[*L&>*}*>*_*|*                                          ",
"                                                                                                  ",
"                                                                                                  ",
"                                                                                                  ",
"                                                                                                  ",
"                                                                                                  ",
"                                                                                                  ",
"                                                                                                  "};
